<svg width="33" height="33" viewBox="0 0 33 33" fill="none" xmlns="http://www.w3.org/2000/svg">
<path d="M31.697 0.385254H2.23786C1.5294 0.385254 0.957031 0.957625 0.957031 1.66609V31.1252C0.957031 31.8337 1.5294 32.406 2.23786 32.406H31.697C32.4054 32.406 32.9778 31.8337 32.9778 31.1252V1.66609C32.9778 0.957625 32.4054 0.385254 31.697 0.385254ZM10.4552 27.671H5.70411V12.389H10.4552V27.671ZM8.08165 10.2997C7.53701 10.2997 7.00459 10.1382 6.55173 9.83559C6.09887 9.533 5.74591 9.10292 5.53749 8.59973C5.32906 8.09654 5.27453 7.54285 5.38078 7.00866C5.48704 6.47448 5.74931 5.9838 6.13443 5.59868C6.51956 5.21355 7.01023 4.95128 7.54442 4.84503C8.0786 4.73877 8.63229 4.7933 9.13548 5.00173C9.63867 5.21016 10.0688 5.56312 10.3713 6.01598C10.6739 6.46884 10.8354 7.00125 10.8354 7.5459C10.8314 9.06689 9.59864 10.2997 8.08165 10.2997ZM28.2427 27.671H23.4957V20.2381C23.4957 18.465 23.4636 16.1875 21.0261 16.1875C18.5565 16.1875 18.1762 18.1168 18.1762 20.1101V27.671H13.4331V12.389H17.9881V14.4784H18.0521C18.6845 13.2776 20.2335 12.0088 22.547 12.0088C27.3582 12.0088 28.2427 15.1748 28.2427 19.2895V27.671Z" fill="#2091F9"/>
</svg>
