<svg width="33" height="33" viewBox="0 0 33 33" fill="none" xmlns="http://www.w3.org/2000/svg">
<path d="M31.7126 0.385254H2.25349C1.54503 0.385254 0.972656 0.957625 0.972656 1.66609V31.1252C0.972656 31.8337 1.54503 32.406 2.25349 32.406H31.7126C32.4211 32.406 32.9934 31.8337 32.9934 31.1252V1.66609C32.9934 0.957625 32.4211 0.385254 31.7126 0.385254ZM28.0142 9.73132H25.4565C23.4512 9.73132 23.063 10.6839 23.063 12.0848V15.1708H27.8501L27.2257 20.002H23.063V32.406H18.0718V20.006H13.897V15.1708H18.0718V11.6085C18.0718 7.47385 20.5974 5.22039 24.2878 5.22039C26.0569 5.22039 27.5739 5.35248 28.0182 5.41252V9.73132H28.0142Z" fill="#2091F9"/>
</svg>
