<svg width="34" height="28" viewBox="0 0 34 28" fill="none" xmlns="http://www.w3.org/2000/svg">
<path d="M33.6455 4.0808C32.4207 4.60914 31.0878 4.98939 29.7149 5.13749C31.1403 4.29068 32.2077 2.95287 32.7168 1.37505C31.3793 2.17072 29.914 2.72866 28.386 3.02412C27.7474 2.34138 26.975 1.79748 26.117 1.42631C25.2589 1.05514 24.3337 0.864651 23.3988 0.866716C19.6163 0.866716 16.5744 3.93271 16.5744 7.69515C16.5744 8.22349 16.6384 8.75183 16.7425 9.26016C11.0788 8.96397 6.02753 6.25821 2.66936 2.11553C2.05746 3.16067 1.7368 4.35068 1.74075 5.56176C1.74075 7.9313 2.94553 10.0207 4.78273 11.2495C3.70004 11.2068 2.64271 10.9092 1.69672 10.3809V10.4649C1.69672 13.7831 4.04225 16.5329 7.16827 17.1653C6.58133 17.3178 5.97753 17.3957 5.37111 17.3974C4.92682 17.3974 4.50655 17.3534 4.08227 17.2934C4.94683 19.9991 7.46447 21.9644 10.4624 22.0284C8.11689 23.8656 5.17898 24.9463 1.98891 24.9463C1.41654 24.9463 0.8882 24.9263 0.339844 24.8623C3.36581 26.8035 6.95614 27.9243 10.8226 27.9243C23.3748 27.9243 30.2432 17.5255 30.2432 8.49967C30.2432 8.20348 30.2432 7.90728 30.2232 7.61109C31.5521 6.63846 32.7168 5.43368 33.6455 4.0808Z" fill="#2091F9"/>
</svg>
