<svg width="46" height="47" viewBox="0 0 46 47" fill="none" xmlns="http://www.w3.org/2000/svg">
<path d="M22.9987 27.1361C27.2269 27.1361 30.6654 23.6976 30.6654 19.4694C30.6654 15.2412 27.2269 11.8027 22.9987 11.8027C18.7705 11.8027 15.332 15.2412 15.332 19.4694C15.332 23.6976 18.7705 27.1361 22.9987 27.1361ZM22.9987 15.6361C25.1128 15.6361 26.832 17.3553 26.832 19.4694C26.832 21.5835 25.1128 23.3027 22.9987 23.3027C20.8846 23.3027 19.1654 21.5835 19.1654 19.4694C19.1654 17.3553 20.8846 15.6361 22.9987 15.6361Z" fill="white"/>
<path d="M21.8898 42.1131C22.2142 42.3447 22.6029 42.4693 23.0015 42.4693C23.4001 42.4693 23.7887 42.3447 24.1131 42.1131C24.6958 41.701 38.3904 31.8129 38.3348 19.4696C38.3348 11.0151 31.4559 4.13623 23.0015 4.13623C14.5471 4.13623 7.66814 11.0151 7.66814 19.46C7.61255 31.8129 21.3071 41.701 21.8898 42.1131ZM23.0015 7.96956C29.3437 7.96956 34.5015 13.1273 34.5015 19.4791C34.5417 27.9853 26.0911 35.6232 23.0015 38.1283C19.9137 35.6213 11.4612 27.9815 11.5015 19.4696C11.5015 13.1273 16.6592 7.96956 23.0015 7.96956Z" fill="white"/>
</svg>
